<svg xmlns="http://www.w3.org/2000/svg" xmlns:xlink="http://www.w3.org/1999/xlink" width="500" zoomAndPan="magnify" viewBox="0 0 375 374.999991" height="500" preserveAspectRatio="xMidYMid meet" version="1.0"><defs><clipPath id="44c51aa066"><path d="M 143.4375 0.214844 L 231.585938 0.214844 L 231.585938 374.816406 L 143.4375 374.816406 Z M 143.4375 0.214844 " clip-rule="nonzero"/></clipPath></defs><g clip-path="url(#44c51aa066)"><path fill="#77c2ba" d="M 201.671875 33.320312 L 201.671875 24.613281 L 191.964844 24.613281 L 191.964844 18.46875 L 210.21875 18.46875 L 210.21875 11.167969 L 191.964844 11.167969 L 191.964844 7.335938 L 196.773438 7.335938 L 196.773438 0.214844 L 178.253906 0.214844 L 178.253906 7.335938 L 183.0625 7.335938 L 183.0625 24.613281 L 173.355469 24.613281 L 173.355469 33.320312 C 156.15625 38.113281 143.4375 53.953125 143.4375 72.628906 L 143.4375 334.011719 C 143.4375 356.457031 161.796875 374.816406 184.242188 374.816406 L 190.785156 374.816406 C 213.226562 374.816406 231.589844 356.457031 231.589844 334.011719 L 231.589844 72.628906 C 231.589844 53.953125 218.871094 38.113281 201.671875 33.320312 " fill-opacity="1" fill-rule="nonzero"/></g></svg>