<svg xmlns="http://www.w3.org/2000/svg" xmlns:xlink="http://www.w3.org/1999/xlink" width="500" zoomAndPan="magnify" viewBox="0 0 375 374.999991" height="500" preserveAspectRatio="xMidYMid meet" version="1.0"><defs><clipPath id="57797eaa13"><path d="M 111.4375 336 L 254 336 L 254 370.972656 L 111.4375 370.972656 Z M 111.4375 336 " clip-rule="nonzero"/></clipPath><clipPath id="52c0717982"><path d="M 111.4375 199 L 254 199 L 254 316 L 111.4375 316 Z M 111.4375 199 " clip-rule="nonzero"/></clipPath><clipPath id="21e966ef82"><path d="M 144 4.222656 L 263.6875 4.222656 L 263.6875 100 L 144 100 Z M 144 4.222656 " clip-rule="nonzero"/></clipPath></defs><path fill="#ffffff" d="M 153.148438 117.667969 C 153.148438 133.324219 145.328125 147.941406 132.296875 156.628906 C 125.785156 160.964844 120.578125 166.789062 116.992188 173.488281 C 116.269531 174.832031 115.617188 176.214844 115.039062 177.628906 L 249.945312 177.628906 C 246.453125 169.195312 240.507812 161.839844 232.679688 156.628906 C 226.167969 152.285156 220.957031 146.460938 217.375 139.765625 C 213.789062 133.066406 211.835938 125.496094 211.835938 117.667969 L 211.835938 99.488281 L 153.148438 99.488281 Z M 153.148438 117.667969 " fill-opacity="1" fill-rule="nonzero"/><g clip-path="url(#57797eaa13)"><path fill="#ffffff" d="M 253.527344 370.671875 L 253.527344 337.3125 L 111.652344 337.3125 L 111.453125 336.976562 L 111.453125 370.671875 Z M 253.527344 370.671875 " fill-opacity="1" fill-rule="nonzero"/></g><g clip-path="url(#52c0717982)"><path fill="#ffffff" d="M 111.453125 199.09375 L 111.453125 315.847656 L 253.527344 315.847656 L 253.527344 199.09375 Z M 204.257812 273.21875 L 193.652344 264.808594 L 193.425781 264.625 L 193.425781 291.0625 L 171.957031 291.0625 L 171.957031 264.625 L 171.730469 264.808594 L 161.125 273.21875 L 147.789062 256.402344 L 182.691406 228.71875 L 217.59375 256.402344 Z M 204.257812 273.21875 " fill-opacity="1" fill-rule="nonzero"/></g><g clip-path="url(#21e966ef82)"><path fill="#ffffff" d="M 242.082031 37.953125 L 242.082031 56.554688 L 213.042969 56.554688 C 209.808594 47.417969 202.5625 40.167969 193.425781 36.9375 L 193.425781 25.789062 L 220.613281 25.789062 L 220.613281 4.320312 L 144.769531 4.320312 L 144.769531 25.789062 L 171.957031 25.789062 L 171.957031 36.9375 C 159.464844 41.359375 150.492188 53.300781 150.492188 67.289062 C 150.492188 85.039062 164.9375 99.488281 182.691406 99.488281 C 196.679688 99.488281 208.621094 90.515625 213.042969 78.019531 L 242.082031 78.019531 L 242.082031 96.625 L 263.546875 96.625 L 263.546875 37.953125 Z M 242.082031 37.953125 " fill-opacity="1" fill-rule="nonzero"/></g></svg>